<svg xmlns="http://www.w3.org/2000/svg" width="594" height="595">
  <path d="M312.951 15.274c3.41 1.208 6.856 2.306 10.299 3.417 14.687 4.796 29.258 9.744 43.625 15.434 9.745 3.86 19.53 7.442 29.5 10.687 16.594 5.406 32.944 11.439 49.31 17.49a2247 2247 0 0 0 15.159 5.542c7.4 2.677 14.784 5.4 22.156 8.156l2.476.924a2219 2219 0 0 1 16.568 6.27q2.734 1.042 5.474 2.07c23.008 8.64 23.008 8.64 27.982 17.986 2.155 4.988 2.644 9.295 2.63 14.693l.005 2.456q.004 4.044-.002 8.09l.003 5.69q.001 5.998-.006 11.997a6657 6657 0 0 0 .004 15.097c.057 57.78.057 57.78-2.384 83.227l-.19 2.022c-2.99 31.372-9.77 61.59-19.623 91.478l-.755 2.312c-2.755 8.374-5.716 16.341-9.87 24.148-1.675 3.244-2.985 6.576-4.257 9.993-1.2 2.898-2.585 5.667-4.002 8.464a373 373 0 0 0-2.877 5.837 275 275 0 0 1-13.094 23.855 323 323 0 0 0-5.02 8.516c-2.776 4.648-6.049 8.875-9.388 13.125-2.389 3.048-4.644 6.117-6.737 9.375-2.907 4.48-6.248 8.535-9.664 12.637a359 359 0 0 0-6.023 7.488q-2.116 2.633-4.25 5.25l-1.229 1.51c-7.52 9.164-15.708 17.616-24.084 25.99l-1.568 1.571C407.26 503.93 401.336 509.654 395 515l-2.984 2.555a392 392 0 0 1-19.137 15.052c-3.973 2.946-7.924 5.923-11.879 8.893l-5.234 3.926-2.498 1.873c-8.518 6.388-8.518 6.388-11.291 8.463a1063 1063 0 0 0-6.766 5.133C326.719 567.364 318.108 573.428 309 579l-2.66 1.664-2.34 1.398-1.938 1.16c-3.767 1.42-6.922 1.236-10.632-.253-11.748-6.754-22.486-14.445-33.219-22.688A999 999 0 0 0 240 546.625c-7.417-5.44-14.756-10.957-22-16.625l-2.523-1.969c-6.084-4.804-11.968-9.828-17.832-14.894a611 611 0 0 0-7.196-6.117c-10.28-8.634-20.06-17.778-28.742-28.043a121 121 0 0 0-3.82-4.204C129.61 444.878 106.562 406.558 90 369l-1.558-3.52c-25.167-57.733-32.468-120.658-32.68-183.152l-.013-3.124q-.03-8.145-.044-16.289c-.011-5.581-.046-11.162-.085-16.744a2492 2492 0 0 1-.038-12.981 924 924 0 0 0-.035-6.177 789 789 0 0 1-.017-8.61l-.039-2.538c.059-6.673 2.053-11.556 6.017-16.896C78.24 83.77 108.667 76.74 129.84 69.514c6.353-2.184 12.6-4.604 18.846-7.077a645 645 0 0 1 25.932-9.606c14.246-4.97 28.384-10.172 42.41-15.732 6.378-2.515 12.778-4.774 19.303-6.88 4.074-1.354 8.086-2.839 12.105-4.344a1590 1590 0 0 1 25.038-9.052q2.13-.754 4.255-1.522c13.647-4.926 21.438-4.996 35.221-.027" fill="#212728"/>
  <path d="M312.951 15.274c3.41 1.208 6.856 2.306 10.299 3.417 14.687 4.796 29.258 9.744 43.625 15.434 9.745 3.86 19.53 7.442 29.5 10.687 16.594 5.406 32.944 11.439 49.31 17.49a2247 2247 0 0 0 15.159 5.542c7.4 2.677 14.784 5.4 22.156 8.156l2.476.924a2219 2219 0 0 1 16.568 6.27q2.734 1.042 5.474 2.07c23.008 8.64 23.008 8.64 27.982 17.986 2.155 4.988 2.644 9.295 2.63 14.693l.005 2.456q.004 4.044-.002 8.09l.003 5.69q.001 5.998-.006 11.997a6657 6657 0 0 0 .004 15.097c.057 57.78.057 57.78-2.384 83.227l-.19 2.022c-2.99 31.372-9.77 61.59-19.623 91.478l-.755 2.312c-2.755 8.374-5.716 16.341-9.87 24.148-1.675 3.244-2.985 6.576-4.257 9.993-1.2 2.898-2.585 5.667-4.002 8.464a373 373 0 0 0-2.877 5.837 275 275 0 0 1-13.094 23.855 323 323 0 0 0-5.02 8.516c-2.776 4.648-6.049 8.875-9.388 13.125-2.389 3.048-4.644 6.117-6.737 9.375-2.907 4.48-6.248 8.535-9.664 12.637a359 359 0 0 0-6.023 7.488q-2.116 2.633-4.25 5.25l-1.229 1.51c-7.52 9.164-15.708 17.616-24.084 25.99l-1.568 1.571C407.26 503.93 401.336 509.654 395 515l-2.984 2.555a392 392 0 0 1-19.137 15.052c-3.973 2.946-7.924 5.923-11.879 8.893l-5.234 3.926-2.498 1.873c-8.518 6.388-8.518 6.388-11.291 8.463a1063 1063 0 0 0-6.766 5.133C326.719 567.364 318.108 573.428 309 579l-2.66 1.664-2.34 1.398-1.938 1.16c-3.767 1.42-6.922 1.236-10.632-.253-11.748-6.754-22.486-14.445-33.219-22.688A999 999 0 0 0 240 546.625c-7.417-5.44-14.756-10.957-22-16.625l-2.523-1.969c-6.084-4.804-11.968-9.828-17.832-14.894a611 611 0 0 0-7.196-6.117c-10.28-8.634-20.06-17.778-28.742-28.043a121 121 0 0 0-3.82-4.204C129.61 444.878 106.562 406.558 90 369l-1.558-3.52c-25.167-57.733-32.468-120.658-32.68-183.152l-.013-3.124q-.03-8.145-.044-16.289c-.011-5.581-.046-11.162-.085-16.744a2492 2492 0 0 1-.038-12.981 924 924 0 0 0-.035-6.177 789 789 0 0 1-.017-8.61l-.039-2.538c.059-6.673 2.053-11.556 6.017-16.896C78.24 83.77 108.667 76.74 129.84 69.514c6.353-2.184 12.6-4.604 18.846-7.077a645 645 0 0 1 25.932-9.606c14.246-4.97 28.384-10.172 42.41-15.732 6.378-2.515 12.778-4.774 19.303-6.88 4.074-1.354 8.086-2.839 12.105-4.344a1590 1590 0 0 1 25.038-9.052q2.13-.754 4.255-1.522c13.647-4.926 21.438-4.996 35.221-.027m-34.264 64.413-1.944.592c-22.872 6.974-45.169 15.804-67.38 24.623-6.394 2.524-12.838 4.912-19.277 7.318-17.893 6.69-35.723 13.503-53.336 20.905l-1.991.835c-6.011 2.527-11.935 5.106-17.759 8.04q-.07 18.596-.104 37.193-.014 8.64-.047 17.277-.032 8.365-.039 16.729-.005 3.162-.021 6.326c-.091 18.25.836 36.4 3.961 54.412l.513 2.984C131.447 333.731 160.24 386.481 200 428l1.514 1.597c7.411 7.778 15.19 14.645 23.772 21.103a305 305 0 0 1 4.96 3.855c30.754 24.684 30.754 24.684 66.82 35.36 5.77-1.043 11.145-3.672 16.496-5.978l3.527-1.509C325.44 478.798 333.3 474.88 341 470l3.594-2.21c6.228-3.873 12.197-7.958 17.837-12.66a309 309 0 0 1 5.037-4.09c6.62-5.282 12.739-10.934 18.694-16.941a779 779 0 0 1 4.408-4.396c5.49-5.482 10.607-11.159 15.45-17.23a167 167 0 0 1 5.19-6.153c3.118-3.607 5.766-7.487 8.415-11.445 4.928-7.323 4.928-7.323 7.562-10.574 1.784-2.265 2.973-4.383 4.188-6.989 1.667-3.446 3.432-6.739 5.437-10 18.22-29.914 30.147-62.028 36-96.562l.59-3.47c2.94-18.476 3.926-36.98 3.97-55.667l.026-6.14q.024-6.35.028-12.702c.005-5.43.043-10.858.088-16.287.03-4.201.037-8.402.038-12.603q.006-3.006.038-6.013c.027-2.78.022-5.559.01-8.34l.044-2.497c.024-2.544.024-2.544-.644-6.031-2.237-2.073-2.237-2.073-5-3l-3.083-1.255-3.44-1.233-1.889-.684a1589 1589 0 0 0-5.963-2.14c-9.053-3.249-18.04-6.603-26.958-10.208-30.003-12.11-60.45-23.027-91.042-33.543l-2.388-.823c-8.731-3.008-17.455-5.845-26.367-8.277-2.503-.73-4.841-1.586-7.245-2.587-8.773-3.025-16.389-.201-24.938 2.437" fill="#212729"/>
  <path d="M300 112c2.52 1.501 4.6 3.391 6.75 5.375l1.857 1.66A425 425 0 0 1 314 124l2.746 2.531C338.505 147.42 358.662 177.318 361 208l3.75-1.355c13.546-4.771 27.124-8.09 41.25-10.645l2.94-.542c5.335-.798 10.674-.767 16.06-.833l3.523-.113c9.551-.099 9.551-.099 13.227 2.886 2.75 3.18 3.374 4.572 3.395 8.646l.02 2.532.003 2.752.01 2.85q.007 3.001.007 6.003c.002 3.015.02 6.03.04 9.046.03 10.451-.24 20.48-2.225 30.773l-.41 2.228c-6.423 32.243-24.26 63.444-51.728 82.095-22.964 15.074-50.708 25.032-78.362 24.74l-2.492-.014q-3.004-.02-6.008-.049l.21 2.712c.692 9.498.983 18.964 1.028 28.487l.013 2.217q.03 5.775.044 11.549c.011 3.962.046 7.923.085 11.885.026 3.069.035 6.137.038 9.206q.008 2.193.035 4.386c.025 2.033.022 4.067.017 6.1l.018 3.496c-.597 3.623-1.6 4.761-4.488 6.962-3.375 1.063-3.375 1.063-7 1-2.605-1.625-4.174-2.642-6-5-.577-3.033-.766-5.258-.681-8.279l-.003-2.485c.004-2.7.051-5.399.098-8.1q.017-2.813.026-5.628c.023-4.93.082-9.86.148-14.79.061-5.034.089-10.069.119-15.103.064-9.872.167-19.743.293-29.615l-1.69.019c-2.579.025-5.157.04-7.736.055l-2.657.03c-8.87.04-17.278-1.162-25.917-3.104l-2.062-.456C222.46 358.647 201.536 344.871 183 327l-2.05-1.824c-20.917-19.09-32.488-56.422-33.9-83.762L147 238l-.042-2.646c-.432-32.24-.432-32.24 4.042-37.354 4.576-3.624 8.734-3.43 14.313-3.312l2.699.036c22.355.47 43.302 6.073 63.988 14.276l.074-1.934c.492-7.965 2.484-14.976 5.051-22.504l1.11-3.447c2.687-8.012 6.253-14.982 10.765-22.115l1.164-1.885c4.133-6.611 8.8-12.688 13.813-18.65a75 75 0 0 0 4.586-6.215C274.615 123.612 288.9 110.387 300 112" fill="#DEE3E4"/>
  <path d="m315.188 62.438 3.967 1.364a750 750 0 0 1 27.428 10.065c5.294 2.046 10.626 3.848 16.054 5.504 8.565 2.622 16.923 5.715 25.3 8.879q4.662 1.749 9.325 3.492l2.304.863c6.206 2.32 12.44 4.556 18.684 6.77 10.158 3.628 20.254 7.414 30.332 11.258q2.562.975 5.126 1.944c32.035 12.11 32.035 12.11 37.838 23.442 1.908 4.524 1.869 8.788 1.826 13.638l.011 2.861c.008 3.113-.005 6.225-.02 9.337q0 3.277.002 6.553 0 6.873-.029 13.746a3500 3500 0 0 0-.016 17.45c.003 4.518-.004 9.036-.013 13.553q-.006 3.21-.004 6.423c.002 13.6-.687 26.915-2.303 40.42l-.382 3.415C488.486 282.396 484.325 300.967 478 319l-1.101 3.141C470.855 339.157 463.869 355.23 455 371l-1.89 3.418c-1.648 2.9-3.36 5.743-5.11 8.582l-1.328 2.17c-10.477 17.087-10.477 17.087-16.61 24.37-2.13 2.541-4.154 5.148-6.178 7.775-3.86 4.998-7.706 9.783-12.298 14.138-1.686 1.644-3.19 3.376-4.711 5.172-8.431 9.736-17.727 18.457-27.875 26.375l-4.16 3.348c-8.613 6.886-17.262 13.178-26.893 18.556a355 355 0 0 0-6.177 3.584c-10.842 6.31-21.995 11.21-33.77 15.512l-3.234 1.191c-14.852 4.343-29.758-4.105-42.553-10.975C231.022 477.079 202.423 454.864 179 428l-1.37-1.569c-13.954-16.057-26.288-32.926-36.585-51.574a250 250 0 0 0-3.342-5.716c-32.38-54.948-38.088-117.242-38.074-179.543 0-4.87-.027-9.74-.061-14.61-.022-3.808-.026-7.616-.025-11.425a729 729 0 0 0-.027-5.39c-.179-22.62-.179-22.62 7.234-30.423 3.483-2.588 7.372-4.254 11.336-5.965l2.116-.918c8.463-3.635 17.065-6.907 25.673-10.18q2.578-.983 5.156-1.97l7.72-2.948a2797 2797 0 0 0 15.144-5.824l3.525-1.366q3.132-1.214 6.261-2.434a326 326 0 0 1 17.548-6.196c2.837-.972 5.577-2.083 8.333-3.261 5.553-2.359 11.166-4.475 16.833-6.537 5.65-2.057 11.284-4.156 16.91-6.28 27.238-10.27 27.238-10.27 38.195-13.683l2.2-.716c11.262-3.34 20.679-.875 31.488 2.965m-36.5 17.25-1.945.59c-22.872 6.975-45.169 15.805-67.38 24.624-6.394 2.524-12.838 4.912-19.277 7.318-17.893 6.69-35.723 13.503-53.336 20.905l-1.991.835c-6.011 2.527-11.935 5.106-17.759 8.04q-.07 18.596-.104 37.193-.014 8.64-.047 17.277-.032 8.364-.039 16.729-.005 3.162-.021 6.326c-.091 18.25.836 36.4 3.961 54.412l.513 2.984C131.447 333.731 160.24 386.481 200 428l1.514 1.597c7.411 7.778 15.19 14.645 23.772 21.103a305 305 0 0 1 4.96 3.855c30.754 24.684 30.754 24.684 66.82 35.36 5.77-1.043 11.145-3.672 16.497-5.978l3.526-1.509C325.44 478.798 333.3 474.88 341 470l3.594-2.21c6.228-3.873 12.197-7.958 17.837-12.66a309 309 0 0 1 5.037-4.09c6.62-5.282 12.739-10.934 18.694-16.941a779 779 0 0 1 4.408-4.396c5.49-5.482 10.607-11.159 15.45-17.23a167 167 0 0 1 5.19-6.153c3.118-3.607 5.766-7.487 8.415-11.445 4.928-7.323 4.928-7.323 7.563-10.574 1.783-2.265 2.972-4.383 4.187-6.988 1.667-3.447 3.432-6.74 5.438-10 18.219-29.915 30.146-62.029 36-96.563l.59-3.47c2.94-18.476 3.925-36.98 3.968-55.667l.027-6.14q.024-6.35.028-12.702c.005-5.43.043-10.858.088-16.287.03-4.201.037-8.402.038-12.603q.006-3.006.038-6.013c.027-2.78.022-5.559.01-8.34l.044-2.497c.024-2.544.024-2.544-.644-6.031-2.237-2.073-2.237-2.073-5-3l-3.083-1.255-3.44-1.233-1.889-.684q-2.98-1.077-5.963-2.14c-9.053-3.249-18.04-6.603-26.958-10.208-30.003-12.11-60.45-23.027-91.042-33.543l-2.388-.823c-8.731-3.008-17.455-5.845-26.367-8.277-2.503-.73-4.841-1.586-7.245-2.587-8.773-3.025-16.389-.201-24.937 2.438" fill="#DBDFE0"/>
  <path d="M163 212c34.49-.676 71.609 10.105 97.5 33.5 18.136 17.465 27.146 37.42 27.725 62.612.112 8.297-.015 16.593-.225 24.888-4.065-3.386-7.924-6.778-11.437-10.75l-2.06-2.297C273 318 273 318 273 316h-2c-1.342-1.363-1.342-1.363-2.941-3.312-4.24-4.982-8.833-9.576-13.475-14.179a2505 2505 0 0 1-4.67-4.646Q244.96 288.928 240 284q-5.756-5.719-11.504-11.448-2.28-2.269-4.564-4.532A275 275 0 0 1 206.5 249c-2.448-2.308-2.448-2.308-6.125-2.5-3.246.289-3.246.289-5.375 1.563-1.235 2.393-1.34 4.21-.832 6.847 2.995 7.522 10.083 13.573 15.832 19.09l5 5 5.055 5.02 4.337 4.317q1.477 1.469 2.955 2.935c5.228 5.183 10.355 10.398 15.146 15.992 2.211 2.547 4.556 4.917 6.945 7.298l1.425 1.422a148 148 0 0 0 8.325 7.641c2.867 2.442 5.344 5.029 7.812 7.875 3.695 4.258 7.687 7.884 12 11.5q2.256 1.93 4.5 3.875l2.031 1.742L287 350v1c-31.558 2.116-63.307-9.453-87-30-20.334-17.883-31.094-42.618-35-69l-.316-2.104c-1.827-12.63-1.917-25.154-1.684-37.896" fill="#369428"/>
  <path d="M430 212c.162 9.81-.246 19.417-1.187 29.188l-.196 2.038c-1.113 11.3-3.019 22.001-6.617 32.774l-1.117 3.508c-4.947 14.16-13.036 25.567-23.529 36.118a143 143 0 0 0-3.44 3.644c-16.912 18.089-46.337 30.97-71.076 31.803-4.949.085-9.89.033-14.838-.073l2.086-2.059c3.26-3.26 6.401-6.626 9.539-10.003l1.734-1.854c2.272-2.443 4.447-4.818 6.414-7.518L329 328h2l2-4h2l2-4h2l.815-1.802c1.189-2.205 2.37-3.62 4.147-5.37l1.811-1.802 1.957-1.917 2.027-2.01q3.21-3.18 6.43-6.349 3.193-3.15 6.378-6.306a1243 1243 0 0 1 3.967-3.914 198 198 0 0 0 10.965-11.796c5.104-5.888 10.852-11.18 16.776-16.226 4.272-3.73 5.305-5.603 5.727-11.508l-1-3c-3.149-1.01-4.782-1.442-8-1-8.178 5.274-15.068 12.784-21.89 19.66l-2.997 2.998a3039 3039 0 0 0-6.212 6.235q-3.945 3.968-7.903 7.923a5169 5169 0 0 0-6.162 6.175q-1.455 1.46-2.913 2.92C337.4 298.44 332.09 304.07 327 310a378 378 0 0 1-3.937 4.254l-2.024 2.15-2.039 2.159-2.04 2.17A519 519 0 0 1 304 334c-1.528-3.055-.968-6.174-.8-9.508l.11-2.298q.12-2.423.25-4.847c.124-2.413.227-4.827.329-7.242C304.96 288.008 311.165 270.683 326 254l2.008-2.477c22.092-26.46 57.777-36.167 90.805-39.21 3.737-.282 7.44-.322 11.187-.313" fill="#379428"/>
  <path d="M297 130c5 5 5 5 7.328 7.348q2.643 2.624 5.363 5.168c12.79 12.18 22.187 26.36 29.309 42.484l1.492 3.363c3.8 9.21 6.87 19.586 6.508 29.637l-3.687.813c-15.521 5.091-28.843 23.395-37.747 36.097L304 257h-1l.02-2.593q.09-12.094.135-24.19c.016-4.145.037-8.29.071-12.435.033-4 .05-8.001.059-12.002q.008-2.289.032-4.579c.022-2.138.025-4.275.024-6.413l.02-3.687c-.388-3.33-1.098-4.69-3.361-7.101-4.795.208-4.795.208-8.703 2.64-1.7 3.095-1.696 5.346-1.73 8.873l-.03 1.952c-.03 2.121-.04 4.242-.049 6.363l-.054 4.422c-.048 3.873-.077 7.746-.104 11.62-.03 3.955-.076 7.91-.121 11.864Q289.082 243.366 289 255c-2.4-2.327-4.41-4.8-6.412-7.48-8.331-11.153-21.15-26.846-35.588-29.52 1.454-30.247 18.348-58.666 40-79a339 339 0 0 1 6.371-5.59A69 69 0 0 0 297 130" fill="#348D2A"/>
  <path d="M300 528c3.704 2.027 5.654 3.48 8 7 .79 3.924.7 7.486-.992 11.145-2.147 2.977-3.83 4.58-7.457 5.425-4.2.189-6.86-.181-10.551-2.258-2.913-3.368-3.853-5.901-4.312-10.312.366-3.516 1.137-5.224 3.312-8 3.932-3.167 7.022-3.611 12-3" fill="#DCE3E8"/>
  <path d="M301 22c3.025 2.06 4.67 3.516 5.48 7.156.26 4.219-.11 6.304-2.543 9.844-3.555 2.42-5.633 3.076-9.937 3-5.468-2.937-5.468-2.937-7-6-.42-3.06-.485-5.947 0-9 4.415-5.577 7.104-6.636 14-5" fill="#DBE7F0"/>
  <path d="M430 212c.162 9.81-.246 19.417-1.187 29.188l-.196 2.038c-1.113 11.3-3.019 22.001-6.617 32.774l-1.117 3.508C416.273 292.704 408.829 304.125 399 314c0-3.16.382-4.36 2-7l3-2c.25-2.584.25-2.584 0-5l1.868-.298c3.082-1.015 3.833-3.168 5.278-5.927l1.041-2.087 1.077-2.053c1.648-3.2 2.953-6.104 3.736-9.635h2l.113-1.723c.455-5.336 1.66-9.357 3.887-14.277 1.014-4.624 1.044-8.966.938-13.687-.072-5.688.347-10.86 1.554-16.438.864-4.889 1.016-9.834 1.262-14.785C427 216 427 216 428 214h-12v-1c4.74-.654 9.21-1.023 14-1" fill="#4F8C4A"/>
  <path d="m117 142 2 1 1 104-2 1c-.877-6.014-1.138-11.832-1.114-17.904v-2.9q.002-4.708.016-9.415l.005-6.557q.006-8.601.024-17.202.014-8.79.02-17.577.016-17.222.049-34.445" fill="#171A1E"/>
  <path d="M163 212c24.354 0 46.835 5.152 69 15v2l-15-5v-2l-1.828-.148-2.422-.227c-.789-.07-1.578-.14-2.39-.21-2.36-.415-2.36-.415-4.208-1.423-4.07-1.876-8.714-1.466-13.132-1.648L190 218l-1-2c-4.14-.21-4.14-.21-8 1v-2l-17-1v20h-1z" fill="#3C7E36"/>
  <path d="M430 212c.265 8.616-.154 17.049-.937 25.625l-.264 2.909c-.375 3.918-.758 7.66-1.799 11.466h-2c-.862-4.808-.96-8.696-.125-13.5 1.043-6.522 1.544-12.93 1.879-19.516C427 216 427 216 428 214h-12v-1c4.735-.653 9.21-1.055 14-1" fill="#3E7C3E"/>
  <path d="M216 256a91 91 0 0 1 4 4v2h3v2l4 1 1 5 1.75.188c3.126 1.128 4.232 3.226 6.25 5.812 1.326.682 2.658 1.352 4 2l1 3 2.563 2.563L246 286v2h2c1.625 2 1.625 2 3 4l-1 2a3701 3701 0 0 1-14.526-14.307 1572 1572 0 0 0-4.948-4.865 1522 1522 0 0 1-7.089-7l-2.253-2.191-2.063-2.062-1.83-1.803C216 260 216 260 216 256" fill="#467A40"/>
  <path d="M377 255h2c-1.39 3.137-3.01 5.255-5.44 7.667l-2.123 2.122-2.289 2.258-2.345 2.337c-2.471 2.46-4.95 4.913-7.428 7.366l-5.031 5.004Q348.179 287.884 342 294l-1-4h3l.813-1.937C346 286 346 286 349 285v-2h2l.625-1.687c1.878-3.16 4.563-4.98 7.375-7.313l1-3 3-1c1.209-2 1.209-2 2-4h3l1-4h3l.313-1.937L373 258l3-1z" fill="#498B44"/>
  <path d="M251 294c1.343.647 2.674 1.319 4 2l2.625 1.313C260 299 260 299 261 301.563c.793 2.693.793 2.693 3.625 3.75L267 306v2h2v2h2c1.656 1.61 1.656 1.61 3.5 3.75l1.844 2.11c1.536 1.985 2.628 3.859 3.656 6.14-3 0-3 0-5.187-1.875C273 318 273 318 273 316h-2c-1.27-1.293-1.27-1.293-2.812-3.187-4.04-4.78-8.452-9.133-12.92-13.507A313 313 0 0 1 251 295z" fill="#387533"/>
  <path d="M170 273h3q1.008 2.654 2 5.313l1.125 2.988C177 284 177 284 177 287h3l.813 3.813c.83 3.337 1.586 4.898 4.187 7.187 1.81 3.27 3.292 6.318 4 10-6.748-6.396-10.953-14.545-14.875-22.875l-.904-1.91c-1.545-3.378-2.675-6.536-3.221-10.215" fill="#427B37"/>
  <path d="M349 308c0 4.093-.218 6.092-2.937 9.25C344 319 344 319 342 319l-1 3c-1.848 1.824-1.848 1.824-4.062 3.688l-2.223 1.886L333 329l-2-3 1.875-.75c2.476-1.456 3.076-2.628 4.125-5.25h2l.742-1.734c1.47-2.646 3.211-4.415 5.383-6.516l2.195-2.14z" fill="#439130"/>
  <path d="M164 214h1l.076 1.817q.177 4.123.362 8.245l.119 2.858c.23 5.091.613 10.05 1.443 15.08h1v14h-2c-1.944-9.296-2.246-18.28-2.125-27.75q.016-2.085.027-4.172.036-5.04.098-10.078" fill="#39782A"/>
  <path d="M163 212c10.125 0 10.125 0 14.691.656l2.92.41 2.952.434 3.056.434q3.691.525 7.381 1.066v1l-2.336-.035-3.039-.028-3.023-.035c-2.586-.082-2.586-.082-4.602 1.098v-2l-17-1v20h-1z" fill="#4F864C"/>
  <path d="M287 302h1v31c-7-6-7-6-9-10h3v2h2c2.087-3.131 2.277-4.07 2.414-7.668l.117-2.705.094-2.815.117-2.85q.141-3.48.258-6.962" fill="#478349"/>
  <path d="m281 145 1 2c-2.57 5.449-5.35 8.126-10 12-2.204 3.129-3.788 6.363-5 10l-3-2q2.833-4.101 5.688-8.187l1.607-2.33c2.957-4.227 5.917-7.976 9.705-11.483" fill="#4C813A"/>
  <path d="M233 274c2 0 2 0 3.5 1.438L238 277l2 1 1 3 2.563 2.563L246 286v2h2c1.625 2 1.625 2 3 4l-1 2c-2.658-2.571-5.3-5.159-7.937-7.75-.755-.73-1.51-1.46-2.288-2.21l-2.177-2.15-2.016-1.967c-1.66-2.018-2.182-3.369-2.582-5.923" fill="#3E7438"/>
  <path d="m194 246 3 1-1.562 1.063c-1.78 1.987-1.78 1.987-1.375 5.312 1 3.872 2.465 5.577 4.937 8.625-.25 2.313-.25 2.313-1 4-4.47-4.118-6.692-6.98-7.312-13.062.346-3.257 1.12-4.564 3.312-6.938" fill="#3E7B44"/>
  <path d="m286 294 3 1v37h-1l-.076-2.627q-.144-4.875-.296-9.75-.065-2.102-.125-4.202c-.31-10.745-.31-10.745-1.503-21.421" fill="#E0EEDF"/>
  <path d="M213 330h6l1 4 7 1v2l7 2-1 2c-4.914-1.437-9.002-3.542-13.375-6.125l-1.941-1.129Q215.338 332.38 213 331z" fill="#448338"/>
  <path d="m313 238 2 1c-.629 3.738-2.317 6.19-4.5 9.25l-1.906 2.703L307 253h-1v-6h3l1-5 3-1z" fill="#3B8134"/>
  <path d="m278 267 3 1v3h2c1.945 4.134 2.37 7.77 2.625 12.313l.227 3.8L286 290c-1.645-3.022-2.595-5.92-3.437-9.25-1.244-4.728-2.763-9.207-4.563-13.75" fill="#D8E7C2"/>
  <path d="M251 196c2 2 2 2 2.117 4.75l-.242 3.25-.195 3.25c-.68 2.75-.68 2.75-2.735 4.125L248 212c.59-5.508 1.567-10.649 3-16" fill="#45803D"/>
  <path d="M410 299c-1.417 4.32-3.538 7.005-6.625 10.313l-2.477 2.675L399 314c0-3.16.382-4.36 2-7l3-2c.25-2.584.25-2.584 0-5 2.076-.553 3.844-1 6-1" fill="#458B40"/>
  <path d="M251 294c1.343.647 2.674 1.319 4 2l2.625 1.313c2.811 1.997 3.21 3.524 4.375 6.687l3 1-1 3q-3.255-3.216-6.5-6.437l-1.879-1.854-1.777-1.768-1.65-1.634C251 295 251 295 251 294" fill="#367333"/>
  <path d="M371 286c0 4.612-2.888 6.8-6 10a151 151 0 0 1-7 6l-2-1z" fill="#3C7F22"/>
  <path d="M276 346c2.813-.5 2.813-.5 6 0 2.875 2.5 2.875 2.5 5 5-4.38-.52-8.688-1.057-13-2z" fill="#218820"/>
  <path d="m265 330 2.063 2.125c3.145 3.154 6.526 6.014 9.937 8.875l-2 2-1.25-1.375c-1.664-1.717-1.664-1.717-3.812-2.562-2.456-1.347-2.95-2.477-3.938-5.063a69 69 0 0 1-1-4" fill="#377C33"/>
  <path d="M335 244c1 3 1 3 .215 4.754-2.948 4.174-4.996 6.154-10.215 7.246 6.15-8.446 6.15-8.446 10-12" fill="#478C3C"/>
  <path d="m416 284 2 3a856 856 0 0 1-3.375 6l-1.898 3.375L411 299h-2c1.545-5.48 4.155-10.114 7-15" fill="#559251"/>
  <path d="M243 344c7.543-.495 13.059 1.094 20 4-4.398 1.373-7.925.243-12.25-.937l-2.258-.592A751 751 0 0 1 243 345z" fill="#518A4C"/>
  <path d="M302 182c2.745 3.294 3.363 5.765 3 10l-.812-1.75c-1.205-2.283-2.596-4.224-4.188-6.25l-8 1v-2c3.56-2.328 5.976-2.284 10-1" fill="#347039"/>
  <path d="m395 245-1.703.773c-2.59 1.384-4.748 3.026-7.047 4.852l-2.422 1.914L382 254l-1-3 2-1 2-3c3.442-1.767 6.154-2.22 10-2" fill="#46943B"/>
  <path d="M426 234h1c.185 12.67.185 12.67-1 18-2.508-3.762-2.293-5.526-2-10 .55-2.715 1.25-5.329 2-8" fill="#388E3D"/>
  <path d="M396 247c3 1 3 1 5 4-.25 3.625-.25 3.625-1 7l-2 1c-.915-3.089-1-5.794-1-9z" fill="#B9D5C3"/>
  <path d="m297 130 4 4c-2 1-2 1-4.375 1.313-3.198.837-4.484 2.229-6.625 4.687l-2-1z" fill="#31692F"/>
  <path d="m333 303 2 1c-2.217 4.434-4.777 6.466-9 9l-2-1z" fill="#E0EFE8"/>
  <path d="M401 251h2v7l-4 2v2l-3-1 1.375-1.062c2.272-2.709 2.793-5.546 3.625-8.938" fill="#367F28"/>
  <path d="M309 276h2l-.621 2.047-.817 2.703-.808 2.672A141 141 0 0 0 307 290h-2q.428-2.377.875-4.75l.492-2.672c.601-2.447 1.413-4.384 2.633-6.578" fill="#DAEEDA"/>
  <path d="m167 257 2 4 1.125 1.875c1.144 2.779 1.01 5.151.875 8.125h-2c-1.591-4.873-2.212-8.808-2-14" fill="#447C37"/>
  <path d="M333 176h2l5 12h-3l-3-7h-1z" fill="#44813E"/>
  <path d="m304 325 6 2-6 7c-1.534-3.069-.55-5.7 0-9" fill="#3C8033"/>
  <path d="m317 317 2 2-8 8-2-3h2v-2h3l.938-1.937C316 318 316 318 317 317" fill="#3B7E36"/>
  <path d="M199 264c4.136 3.381 7.813 6.666 11 11l-2 1-2.25-2.875c-2.028-2.45-3.708-3.998-6.75-5.125z" fill="#2B6C2C"/>
  <path d="M298.063 133.938 301 134l1 2c-3.287 2.191-4.235 2.097-8 2l-2 1c2.414-4.988 2.414-4.988 6.063-5.062" fill="#268220"/>
  <path d="m290 114 1 2-2-1zm-3 2 2 1h-3zm-3 2 3 1-2 2-2-2zm-3 2 2 1-5 5-2-1z" fill="#D1D8DC"/>
  <path d="M446 350h2c-1.642 4.776-4.265 8.794-7 13-1-3-1-3 .145-5.48l1.668-2.707 1.644-2.731z" fill="#E0ECF0"/>
  <path d="M170 273h3l3 10h-3z" fill="#487C3B"/>
  <path d="M345 208h1l1 10h-6l1-3h3z" fill="#538B53"/>
  <path d="M307 536h1c.67 7.768.67 7.768-2.375 11.5C303 550 303 550 301 550v-2h2l.938-1.937C305 544 305 544 306 543q.553-3.493 1-7" fill="#ECF3F5"/>
  <path d="m323 258 1 2c-.996 1.945-.996 1.945-2.437 4.125l-1.434 2.195L319 268l-3-1z" fill="#42892F"/>
  <path d="m194 246 3 1-1.5 1.125c-2.098 2.622-1.717 4.613-1.5 7.875h-3c-.37-5.415-.37-5.415 1.5-8.375z" fill="#488948"/>
  <path d="M272 156c0 3.151-.352 3.926-1.937 6.5-1.366 2.232-2.221 3.975-3.063 6.5l-3-2z" fill="#417233"/>
  <path d="m422 98 1 2a76 76 0 0 0 5 1l3 1v2a1126 1126 0 0 1-4.375-.937l-2.46-.528C422 102 422 102 420 101v-2z" fill="#2E3437"/>
  <path d="M148 254h2l1 10-2 1c-1.283-3.85-1.066-6.947-1-11" fill="#2E2F36"/>
  <path d="m287 139 3 1v2h-4l-1 4h-3c1.293-2.884 2.66-4.872 5-7" fill="#3E822D"/>
  <path d="m302 36 3 1c-2.518 3.123-3.726 3.945-7.75 4.75L294 42v-2l3.438-.875L301 38z" fill="#CDD7DB"/>
  <path d="M265 306h2v2h2v2h2v2l-3 1c-3-3.625-3-3.625-3-7" fill="#40883E"/>
  <path d="M267 254c5.875 4.625 5.875 4.625 7 8l-5-1z" fill="#51943E"/>
  <path d="M302 452h2c-1 3-1 3-2.75 4.188-2.55.92-4.56.961-7.25.812v-2l3.438-.937c3.35-.692 3.35-.692 4.562-2.063" fill="#CED5D7"/>
  <path d="M371 336c-1 3-1 3-2.75 4.188-2.55.92-4.56.961-7.25.812 6.364-5 6.364-5 10-5" fill="#C5E0C8"/>
  <path d="m286 294 3 1v10c-2.566-3.85-2.551-6.435-3-11" fill="#D7E9CE"/>
  <path d="M338 297c.75 1.75.75 1.75 1 4-1.937 2.25-1.937 2.25-4 4v-2l-2-1z" fill="#CFE7D6"/>
  <path d="M228 293q1.693 1.4 3.375 2.813l1.898 1.582C235 299 235 299 237 302c-3 0-3 0-4.605-1.46l-1.583-1.915-1.605-1.898C228 295 228 295 228 293" fill="#3E793C"/>
  <path d="m388 268 3 2c-2.395 2.9-4.312 3.502-8 4z" fill="#498735"/>
  <path d="M345 236v3c-2.375 2.063-2.375 2.063-5 4l-2 2-2-2z" fill="#3C7F2E"/>
  <path d="m336 223-9 6v-3h2v-2c3.625-2.125 3.625-2.125 7-1" fill="#428643"/>
  <path d="M341 366c-2.8 2.8-5.13 2.724-9 3l-2-2c3.674-1.176 7.17-1.074 11-1" fill="#2B3131"/>
  <path d="m331 327 1 2h-2l1 4-3-1v2l-3-1c3.75-4.875 3.75-4.875 6-6" fill="#328622"/>
  <path d="M111 303c2.296 3.445 2.54 5.938 3 10h-2q-.543-1.935-1.062-3.875l-.598-2.18C110 305 110 305 111 303" fill="#2C3036"/>
  <path d="M114 317h2l2 8-2 1z" fill="#2A2E30"/>
  <path d="M193 313c3.837.96 4.597 1.236 7 4l-1 3z" fill="#4E8C3B"/>
  <path d="M309 245c.75 1.75.75 1.75 1 4-1.937 2.25-1.937 2.25-4 4v-6h3z" fill="#409243"/>
  <path d="M84 350c2.797 2.068 3.027 3.144 3.688 6.688L88 360c-2.797-2.068-3.027-3.144-3.687-6.687z" fill="#1D1F21"/>
  <path d="M234 341c6.055-.195 6.055-.195 8 0l2 2c-3.815 1.467-6.29.433-10-1z" fill="#418339"/>
  <path d="m398 314 1 2-4 5-3-1z" fill="#CCE6CF"/>
  <path d="M315 78c3 1 3 1 5 4-2.375.188-2.375.188-5 0l-2-3z" fill="#D5D8DD"/>
</svg>
